{"title":"Wolf Creek S01E04 Opalville 1080p WEB-DL HEVC DD5.1 x265","uid":15946286,"size":708346962,"categoryP":"video","categoryS":"hd___tv_shows","magnet":"?xt=urn:btih:30c77a8223ca48c9dce4b2e92d1764383e753fc6&amp;dn=Wolf+Creek+S01E04+Opalville+1080p+WEB-DL+HEVC+DD5.1+x265&amp;tr=udp%3A%2F%2Ftracker.leechers-paradise.org%3A6969&amp;tr=udp%3A%2F%2Fzer0day.ch%3A1337&amp;tr=udp%3A%2F%2Fopen.demonii.com%3A1337&amp;tr=udp%3A%2F%2Ftracker.coppersurfer.tk%3A6969&amp;tr=udp%3A%2F%2Fexodus.desync.com%3A6969","seeders":4,"leechers":2,"uploader":"nayhtut","files":1,"time":1475513308,"description":"Source: Wolf Creek S01E04 Opalville 1080p WEB-DL DD5.1 H.264-Web4HD (2.53 GB)\r\n\r\n\r\nComplete name: Wolf.Creek.S01E04.Opalville.1080p.WEB.DL.HEVC.DD5.1.x265.mkv\r\nFormat                                   : Matroska\r\nFormat version                           : Version 4 / Version 2\r\nFile size                                : 676 MiB\r\nDuration                                 : 44mn 37s\r\nOverall bit rate                         : 2 116 Kbps\r\nWriting application                      : Lavf57.25.100\r\nWriting library                          : Lavf57.25.100\r\n\r\nVideo\r\n\r\nID                                       : 1\r\nFormat                                   : V_MPEGH/ISO/HEVC\r\nCodec ID                                 : V_MPEGH/ISO/HEVC\r\nDuration                                 : 44mn 37s\r\nBit rate                                 : 1 690 Kbps\r\nWidth                                    : 1 920 pixels\r\nHeight                                   : 960 pixels\r\nDisplay aspect ratio                     : 2.000\r\nFrame rate                               : 25.000 fps\r\nBits/(Pixel*Frame)                       : 0.037\r\nStream size                              : 540 MiB (80%)\r\nWriting library                          : Lavc57.48.101 libx265\r\nDefault                                  : Yes\r\nForced                                   : No\r\nDURATION                                 : 00:44:37.611000000\r\n\r\nAudio\r\n\r\nID                                       : 2\r\nFormat                                   : AC-3\r\nFormat/Info                              : Audio Coding 3\r\nMode extension                           : CM (complete main)\r\nFormat settings, Endianness              : Big\r\nCodec ID                                 : A_AC3\r\nDuration                                 : 44mn 37s\r\nBit rate mode                            : Constant\r\nBit rate                                 : 384 Kbps\r\nChannel(s)                               : 6 channels\r\nChannel positions                        : Front: L C R, Side: L R, LFE\r\nSampling rate                            : 48.0 KHz\r\nBit depth                                : 16 bits\r\nCompression mode                         : Lossy\r\nStream size                              : 123 MiB (18%)\r\nWriting library                          : Lavc57.24.102 ac3\r\nLanguage                                 : English\r\nDefault                                  : Yes\r\nForced                                   : No\r\nDURATION                                 : 00:44:37.567000000","torrent":{"xt":"urn:btih:30c77a8223ca48c9dce4b2e92d1764383e753fc6","amp;dn":"Wolf+Creek+S01E04+Opalville+1080p+WEB-DL+HEVC+DD5.1+x265","amp;tr":["udp%3A%2F%2Ftracker.leechers-paradise.org%3A6969","udp%3A%2F%2Fzer0day.ch%3A1337","udp%3A%2F%2Fopen.demonii.com%3A1337","udp%3A%2F%2Ftracker.coppersurfer.tk%3A6969","udp%3A%2F%2Fexodus.desync.com%3A6969"],"infoHash":"30c77a8223ca48c9dce4b2e92d1764383e753fc6","infoHashBuffer":{"type":"Buffer","data":[48,199,122,130,35,202,72,201,220,228,178,233,45,23,100,56,62,117,63,198]},"announce":[],"urlList":[]}}